<?xml version="1.0" encoding="UTF-8"?>
<svg xmlns="http://www.w3.org/2000/svg" xmlns:xlink="http://www.w3.org/1999/xlink" width="100px" height="100px" viewBox="0 0 100 100" version="1.1">
<g id="surface1">
<path style=" stroke:none;fill-rule:nonzero;fill:rgb(16.470589%,86.666667%,11.372549%);fill-opacity:1;" d="M 91.933594 1.835938 C 92.519531 2.441406 92.96875 3.125 93.28125 3.847656 C 93.59375 4.570312 93.75 5.371094 93.75 6.230469 C 93.75 6.230469 93.75 6.25 93.75 6.25 L 93.75 25 C 93.75 28.457031 90.957031 31.25 87.5 31.25 C 84.042969 31.25 81.25 28.457031 81.25 25 L 81.25 21.347656 L 60.664062 41.914062 C 58.359375 44.21875 54.648438 44.375 52.167969 42.246094 L 34.375 26.972656 L 16.5625 42.246094 C 13.945312 44.492188 10 44.179688 7.753906 41.5625 C 5.507812 38.945312 5.820312 35 8.4375 32.753906 L 30.3125 14.003906 C 32.65625 11.992188 36.113281 11.992188 38.457031 14.003906 L 55.9375 28.984375 L 72.402344 12.5 L 68.75 12.5 C 65.292969 12.5 62.5 9.707031 62.5 6.25 C 62.5 2.792969 65.292969 0 68.75 0 L 87.5 0 C 89.21875 0 90.78125 0.703125 91.914062 1.816406 Z M 0 59.375 C 0 54.199219 4.199219 50 9.375 50 L 90.625 50 C 95.800781 50 100 54.199219 100 59.375 L 100 90.625 C 100 95.800781 95.800781 100 90.625 100 L 9.375 100 C 4.199219 100 0 95.800781 0 90.625 Z M 9.375 81.25 L 9.375 90.625 L 18.75 90.625 C 18.75 85.449219 14.550781 81.25 9.375 81.25 Z M 18.75 59.375 L 9.375 59.375 L 9.375 68.75 C 14.550781 68.75 18.75 64.550781 18.75 59.375 Z M 90.625 81.25 C 85.449219 81.25 81.25 85.449219 81.25 90.625 L 90.625 90.625 Z M 81.25 59.375 C 81.25 64.550781 85.449219 68.75 90.625 68.75 L 90.625 59.375 Z M 62.5 75 C 62.5 68.097656 56.902344 62.5 50 62.5 C 43.097656 62.5 37.5 68.097656 37.5 75 C 37.5 81.902344 43.097656 87.5 50 87.5 C 56.902344 87.5 62.5 81.902344 62.5 75 Z M 62.5 75 "/>
</g>
</svg>
